{
  "accessors": [
    {
      "bufferView": 2,
      "componentType": 5126,
      "count": 5120,
      "max": [
        4.053123474121094,
        0.4354754388332367,
        6.053873538970947
      ],
      "min": [
        -3.088778018951416,
        0.2834227681159973,
        -3.088778018951416
      ],
      "type": "VEC3"
    },
    {
      "bufferView": 2,
      "byteOffset": 61440,
      "componentType": 5126,
      "count": 5120,
      "max": [
        1.0,
        1.0,
        1.0
      ],
      "min": [
        -1.0,
        -1.0,
        -1.0
      ],
      "type": "VEC3"
    },
    {
      "bufferView": 1,
      "componentType": 5126,
      "count": 5120,
      "max": [
        1.0015150308609009,
        0.9976335763931274
      ],
      "min": [
        0.735554039478302,
        0.7619131803512573
      ],
      "type": "VEC2"
    },
    {
      "bufferView": 1,
      "byteOffset": 40960,
      "componentType": 5126,
      "count": 5120,
      "max": [
        1.0015150308609009,
        0.9976335763931274
      ],
      "min": [
        0.735554039478302,
        0.7619131803512573
      ],
      "type": "VEC2"
    },
    {
      "bufferView": 0,
      "componentType": 5125,
      "count": 9024,
      "type": "SCALAR"
    },
    {
      "bufferView": 2,
      "byteOffset": 122880,
      "componentType": 5126,
      "count": 386,
      "max": [
        4.0,
        0.6501835584640503,
        6.0
      ],
      "min": [
        -3.044116735458374,
        1.4901161193847656e-07,
        -3.044116735458374
      ],
      "type": "VEC3"
    },
    {
      "bufferView": 2,
      "byteOffset": 127512,
      "componentType": 5126,
      "count": 386,
      "max": [
        1.0,
        1.0,
        1.0
      ],
      "min": [
        -1.0,
        -1.0,
        -1.0
      ],
      "type": "VEC3"
    },
    {
      "bufferView": 1,
      "byteOffset": 81920,
      "componentType": 5126,
      "count": 386,
      "max": [
        0.8478453755378723,
        0.9522138833999634
      ],
      "min": [
        -0.07285092771053314,
        0.009447932243347168
      ],
      "type": "VEC2"
    },
    {
      "bufferView": 1,
      "byteOffset": 85008,
      "componentType": 5126,
      "count": 386,
      "max": [
        0.8478453755378723,
        0.9522138833999634
      ],
      "min": [
        -0.07285092771053314,
        0.009447932243347168
      ],
      "type": "VEC2"
    },
    {
      "bufferView": 0,
      "byteOffset": 36096,
      "componentType": 5125,
      "count": 756,
      "type": "SCALAR"
    },
    {
      "bufferView": 2,
      "byteOffset": 132144,
      "componentType": 5126,
      "count": 12,
      "max": [
        -1.4999992847442627,
        1.4901161193847656e-07,
        6.0
      ],
      "min": [
        -3.033271551132202,
        1.4901161193847656e-07,
        -3.033271551132202
      ],
      "type": "VEC3"
    },
    {
      "bufferView": 2,
      "byteOffset": 132288,
      "componentType": 5126,
      "count": 12,
      "max": [
        0.0,
        -1.0,
        0.0
      ],
      "min": [
        0.0,
        -1.0,
        0.0
      ],
      "type": "VEC3"
    },
    {
      "bufferView": 1,
      "byteOffset": 88096,
      "componentType": 5126,
      "count": 12,
      "max": [
        0.1815253049135208,
        0.045697279274463654
      ],
      "min": [
        0.13486248254776,
        -0.000965478306170553
      ],
      "type": "VEC2"
    },
    {
      "bufferView": 0,
      "byteOffset": 39120,
      "componentType": 5125,
      "count": 18,
      "type": "SCALAR"
    },
    {
      "bufferView": 2,
      "byteOffset": 132432,
      "componentType": 5126,
      "count": 2766,
      "max": [
        4.75,
        0.5884481072425842,
        5.993977069854736
      ],
      "min": [
        -5.75,
        -0.044999998062849045,
        -5.016996383666992
      ],
      "type": "VEC3"
    },
    {
      "bufferView": 2,
      "byteOffset": 165624,
      "componentType": 5126,
      "count": 2766,
      "max": [
        1.0,
        1.0,
        1.0
      ],
      "min": [
        -1.0,
        -1.0,
        -1.0
      ],
      "type": "VEC3"
    },
    {
      "bufferView": 1,
      "byteOffset": 88192,
      "componentType": 5126,
      "count": 2766,
      "max": [
        1.0027921199798584,
        1.0008442401885986
      ],
      "min": [
        0.00045281642815098166,
        -0.0012010708451271057
      ],
      "type": "VEC2"
    },
    {
      "bufferView": 1,
      "byteOffset": 110320,
      "componentType": 5126,
      "count": 2766,
      "max": [
        1.0027921199798584,
        1.0008442401885986
      ],
      "min": [
        0.00045281642815098166,
        -0.0012010708451271057
      ],
      "type": "VEC2"
    },
    {
      "bufferView": 0,
      "byteOffset": 39192,
      "componentType": 5125,
      "count": 5445,
      "type": "SCALAR"
    },
    {
      "bufferView": 2,
      "byteOffset": 198816,
      "componentType": 5126,
      "count": 4470,
      "max": [
        6.0,
        0.0,
        5.993977069854736
      ],
      "min": [
        -6.0,
        -0.044999998062849045,
        -5.006022930145264
      ],
      "type": "VEC3"
    },
    {
      "bufferView": 2,
      "byteOffset": 252456,
      "componentType": 5126,
      "count": 4470,
      "max": [
        1.0,
        1.0,
        1.0
      ],
      "min": [
        -1.0,
        -0.0030523445457220078,
        -1.0
      ],
      "type": "VEC3"
    },
    {
      "bufferView": 1,
      "byteOffset": 132448,
      "componentType": 5126,
      "count": 4470,
      "max": [
        1.0,
        1.0
      ],
      "min": [
        0.0,
        -0.0006423592567443848
      ],
      "type": "VEC2"
    },
    {
      "bufferView": 1,
      "byteOffset": 168208,
      "componentType": 5126,
      "count": 4470,
      "max": [
        1.0,
        1.0
      ],
      "min": [
        0.0,
        -0.0006423592567443848
      ],
      "type": "VEC2"
    },
    {
      "bufferView": 0,
      "byteOffset": 60972,
      "componentType": 5125,
      "count": 11028,
      "type": "SCALAR"
    },
    {
      "bufferView": 2,
      "byteOffset": 306096,
      "componentType": 5126,
      "count": 15102,
      "max": [
        5.98962926864624,
        3.7825570106506348,
        5.993976593017578
      ],
      "min": [
        -6.0,
        -0.0015324503183364868,
        -5.023976802825928
      ],
      "type": "VEC3"
    },
    {
      "bufferView": 2,
      "byteOffset": 487320,
      "componentType": 5126,
      "count": 15102,
      "max": [
        1.0,
        1.0,
        1.0
      ],
      "min": [
        -1.0,
        -1.0,
        -1.0
      ],
      "type": "VEC3"
    },
    {
      "bufferView": 1,
      "byteOffset": 203968,
      "componentType": 5126,
      "count": 15102,
      "max": [
        1.0039973258972168,
        0.9993266463279724
      ],
      "min": [
        -0.0011858418583869934,
        -1.6033649444580078e-05
      ],
      "type": "VEC2"
    },
    {
      "bufferView": 1,
      "byteOffset": 324784,
      "componentType": 5126,
      "count": 15102,
      "max": [
        1.0039973258972168,
        0.9993266463279724
      ],
      "min": [
        -0.0011858418583869934,
        -1.6033649444580078e-05
      ],
      "type": "VEC2"
    },
    {
      "bufferView": 0,
      "byteOffset": 105084,
      "componentType": 5125,
      "count": 35277,
      "type": "SCALAR"
    },
    {
      "bufferView": 2,
      "byteOffset": 668544,
      "componentType": 5126,
      "count": 8848,
      "max": [
        3.75,
        0.5738399028778076,
        4.993977069854736
      ],
      "min": [
        -5.0,
        -0.019999999552965164,
        -2.0060229301452637
      ],
      "type": "VEC3"
    },
    {
      "bufferView": 2,
      "byteOffset": 774720,
      "componentType": 5126,
      "count": 8848,
      "max": [
        0.9780901670455933,
        1.0,
        0.9880285859107971
      ],
      "min": [
        -0.9780900478363037,
        -1.0,
        -0.9880297780036926
      ],
      "type": "VEC3"
    },
    {
      "bufferView": 1,
      "byteOffset": 445600,
      "componentType": 5126,
      "count": 8848,
      "max": [
        1.0066934823989868,
        1.0
      ],
      "min": [
        0.0,
        0.0
      ],
      "type": "VEC2"
    },
    {
      "bufferView": 1,
      "byteOffset": 516384,
      "componentType": 5126,
      "count": 8848,
      "max": [
        1.0066934823989868,
        1.0
      ],
      "min": [
        0.0,
        0.0
      ],
      "type": "VEC2"
    },
    {
      "bufferView": 0,
      "byteOffset": 246192,
      "componentType": 5125,
      "count": 14694,
      "type": "SCALAR"
    },
    {
      "bufferView": 2,
      "byteOffset": 880896,
      "componentType": 5126,
      "count": 116,
      "max": [
        4.0,
        0.0,
        1.9939769506454468
      ],
      "min": [
        -2.0,
        0.0,
        -1.0060230493545532
      ],
      "type": "VEC3"
    },
    {
      "bufferView": 2,
      "byteOffset": 882288,
      "componentType": 5126,
      "count": 116,
      "max": [
        0.0,
        1.0,
        0.0
      ],
      "min": [
        0.0,
        1.0,
        0.0
      ],
      "type": "VEC3"
    },
    {
      "bufferView": 3,
      "componentType": 5126,
      "count": 116,
      "max": [
        1.0,
        0.0,
        1.0,
        1.0
      ],
      "min": [
        -1.0,
        0.0,
        -1.0,
        1.0
      ],
      "type": "VEC4"
    },
    {
      "bufferView": 1,
      "byteOffset": 587168,
      "componentType": 5126,
      "count": 116,
      "max": [
        1.0,
        1.000964879989624
      ],
      "min": [
        0.0,
        -0.0020073354244232178
      ],
      "type": "VEC2"
    },
    {
      "bufferView": 1,
      "byteOffset": 588096,
      "componentType": 5126,
      "count": 116,
      "max": [
        1.0,
        1.000964879989624
      ],
      "min": [
        0.0,
        -0.0020073354244232178
      ],
      "type": "VEC2"
    },
    {
      "bufferView": 1,
      "byteOffset": 589024,
      "componentType": 5126,
      "count": 116,
      "max": [
        1.0,
        1.000964879989624
      ],
      "min": [
        0.0,
        -0.0020073354244232178
      ],
      "type": "VEC2"
    },
    {
      "bufferView": 1,
      "byteOffset": 589952,
      "componentType": 5126,
      "count": 116,
      "max": [
        1.0,
        1.000964879989624
      ],
      "min": [
        0.0,
        -0.0020073354244232178
      ],
      "type": "VEC2"
    },
    {
      "bufferView": 0,
      "byteOffset": 304968,
      "componentType": 5125,
      "count": 246,
      "type": "SCALAR"
    }
  ],
  "asset": {
    "extras": {
      "author": "Spicy_EJ (https://sketchfab.com/Spicy_EJ)",
      "license": "CC-BY-4.0 (http://creativecommons.org/licenses/by/4.0/)",
      "source": "https://sketchfab.com/3d-models/modular-city-environment-595cb232e26d4e65ab93af82bdcefaa4",
      "title": "Modular City Environment"
    },
    "generator": "Sketchfab-13.21.0",
    "version": "2.0"
  },
  "bufferViews": [
    {
      "buffer": 0,
      "byteLength": 305952,
      "name": "floatBufferViews",
      "target": 34963
    },
    {
      "buffer": 0,
      "byteLength": 590880,
      "byteOffset": 305952,
      "byteStride": 8,
      "name": "floatBufferViews",
      "target": 34962
    },
    {
      "buffer": 0,
      "byteLength": 883680,
      "byteOffset": 896832,
      "byteStride": 12,
      "name": "floatBufferViews",
      "target": 34962
    },
    {
      "buffer": 0,
      "byteLength": 1856,
      "byteOffset": 1780512,
      "byteStride": 16,
      "name": "floatBufferViews",
      "target": 34962
    }
  ],
  "buffers": [
    {
      "byteLength": 1782368,
      "uri": "scene.bin"
    }
  ],
  "images": [
    {
      "uri": "textures/pasted__Mat_Road_baseColor.png"
    },
    {
      "uri": "textures/pasted__Mat_BuildingTextures_baseColor.png"
    },
    {
      "uri": "textures/Mat_Pavement_baseColor.png"
    },
    {
      "uri": "textures/Mat_Grass_baseColor.png"
    },
    {
      "uri": "textures/Mat_PlazaTiles_Omnidirectional_baseColor.png"
    },
    {
      "uri": "textures/Mat_PlazaTiles_Omnidirectional_normal.png"
    }
  ],
  "materials": [
    {
      "doubleSided": true,
      "name": "pasted__Mat_Road",
      "pbrMetallicRoughness": {
        "baseColorTexture": {
          "index": 0
        },
        "metallicFactor": 0.0,
        "roughnessFactor": 0.9207483815999999
      }
    },
    {
      "doubleSided": true,
      "name": "pasted__Mat_BuildingTextures",
      "pbrMetallicRoughness": {
        "baseColorTexture": {
          "index": 1
        },
        "metallicFactor": 0.0,
        "roughnessFactor": 0.9207483815999999
      }
    },
    {
      "doubleSided": true,
      "name": "lambert1",
      "pbrMetallicRoughness": {
        "baseColorFactor": [
          0.5,
          0.5,
          0.5,
          1.0
        ],
        "metallicFactor": 0.0,
        "roughnessFactor": 0.6
      }
    },
    {
      "doubleSided": true,
      "name": "Mat_Road",
      "pbrMetallicRoughness": {
        "baseColorTexture": {
          "index": 0
        },
        "metallicFactor": 0.0,
        "roughnessFactor": 0.9207483815999999
      }
    },
    {
      "doubleSided": true,
      "name": "Mat_Pavement",
      "pbrMetallicRoughness": {
        "baseColorTexture": {
          "index": 2
        },
        "metallicFactor": 0.0,
        "roughnessFactor": 0.9207483815999999
      }
    },
    {
      "doubleSided": true,
      "name": "Mat_BuildingTextures",
      "pbrMetallicRoughness": {
        "baseColorTexture": {
          "index": 1
        },
        "metallicFactor": 0.0,
        "roughnessFactor": 0.9207483815999999
      }
    },
    {
      "doubleSided": true,
      "name": "Mat_Grass",
      "pbrMetallicRoughness": {
        "baseColorTexture": {
          "index": 3
        },
        "metallicFactor": 0.0,
        "roughnessFactor": 0.9276423938
      }
    },
    {
      "doubleSided": true,
      "name": "Mat_PlazaTiles_Omnidirectional",
      "normalTexture": {
        "index": 5
      },
      "pbrMetallicRoughness": {
        "baseColorTexture": {
          "index": 4
        },
        "metallicFactor": 0.0,
        "roughnessFactor": 0.9207483815999999
      }
    }
  ],
  "meshes": [
    {
      "name": "ModularCity_CombinedForFBX_pasted__Mat_Road_0",
      "primitives": [
        {
          "attributes": {
            "NORMAL": 1,
            "POSITION": 0,
            "TEXCOORD_0": 2,
            "TEXCOORD_1": 3
          },
          "indices": 4,
          "material": 0,
          "mode": 4
        }
      ]
    },
    {
      "name": "ModularCity_CombinedForFBX_pasted__Mat_BuildingTextures_0",
      "primitives": [
        {
          "attributes": {
            "NORMAL": 6,
            "POSITION": 5,
            "TEXCOORD_0": 7,
            "TEXCOORD_1": 8
          },
          "indices": 9,
          "material": 1,
          "mode": 4
        }
      ]
    },
    {
      "name": "ModularCity_CombinedForFBX_lambert1_0",
      "primitives": [
        {
          "attributes": {
            "NORMAL": 11,
            "POSITION": 10,
            "TEXCOORD_0": 12
          },
          "indices": 13,
          "material": 2,
          "mode": 4
        }
      ]
    },
    {
      "name": "ModularCity_CombinedForFBX_Mat_Road_0",
      "primitives": [
        {
          "attributes": {
            "NORMAL": 15,
            "POSITION": 14,
            "TEXCOORD_0": 16,
            "TEXCOORD_1": 17
          },
          "indices": 18,
          "material": 3,
          "mode": 4
        }
      ]
    },
    {
      "name": "ModularCity_CombinedForFBX_Mat_Pavement_0",
      "primitives": [
        {
          "attributes": {
            "NORMAL": 20,
            "POSITION": 19,
            "TEXCOORD_0": 21,
            "TEXCOORD_1": 22
          },
          "indices": 23,
          "material": 4,
          "mode": 4
        }
      ]
    },
    {
      "name": "ModularCity_CombinedForFBX_Mat_BuildingTextures_0",
      "primitives": [
        {
          "attributes": {
            "NORMAL": 25,
            "POSITION": 24,
            "TEXCOORD_0": 26,
            "TEXCOORD_1": 27
          },
          "indices": 28,
          "material": 5,
          "mode": 4
        }
      ]
    },
    {
      "name": "ModularCity_CombinedForFBX_Mat_Grass_0",
      "primitives": [
        {
          "attributes": {
            "NORMAL": 30,
            "POSITION": 29,
            "TEXCOORD_0": 31,
            "TEXCOORD_1": 32
          },
          "indices": 33,
          "material": 6,
          "mode": 4
        }
      ]
    },
    {
      "name": "ModularCity_CombinedForFBX_Mat_PlazaTiles_Omnidirectional_0",
      "primitives": [
        {
          "attributes": {
            "NORMAL": 35,
            "POSITION": 34,
            "TANGENT": 36,
            "TEXCOORD_0": 37,
            "TEXCOORD_1": 38,
            "TEXCOORD_2": 39,
            "TEXCOORD_3": 40
          },
          "indices": 41,
          "material": 7,
          "mode": 4
        }
      ]
    }
  ],
  "nodes": [
    {
      "children": [
        1
      ],
      "matrix": [
        1.0,
        0.0,
        0.0,
        0.0,
        0.0,
        2.220446049250313e-16,
        -1.0,
        0.0,
        0.0,
        1.0,
        2.220446049250313e-16,
        0.0,
        0.0,
        0.0,
        0.0,
        1.0
      ],
      "name": "Sketchfab_model"
    },
    {
      "children": [
        2
      ],
      "matrix": [
        0.009999999776482582,
        0.0,
        0.0,
        0.0,
        0.0,
        0.0,
        0.009999999776482582,
        0.0,
        0.0,
        -0.009999999776482582,
        0.0,
        0.0,
        0.0,
        0.0,
        0.0,
        1.0
      ],
      "name": "fe774c99007f41b394f2cb6333b06762.fbx"
    },
    {
      "children": [
        3
      ],
      "name": "RootNode"
    },
    {
      "children": [
        4,
        5,
        6,
        7,
        8,
        9,
        10,
        11
      ],
      "name": "ModularCity_CombinedForFBX"
    },
    {
      "mesh": 0,
      "name": "ModularCity_CombinedForFBX_pasted__Mat_Road_0"
    },
    {
      "mesh": 1,
      "name": "ModularCity_CombinedForFBX_pasted__Mat_BuildingTextures_0"
    },
    {
      "mesh": 2,
      "name": "ModularCity_CombinedForFBX_lambert1_0"
    },
    {
      "mesh": 3,
      "name": "ModularCity_CombinedForFBX_Mat_Road_0"
    },
    {
      "mesh": 4,
      "name": "ModularCity_CombinedForFBX_Mat_Pavement_0"
    },
    {
      "mesh": 5,
      "name": "ModularCity_CombinedForFBX_Mat_BuildingTextures_0"
    },
    {
      "mesh": 6,
      "name": "ModularCity_CombinedForFBX_Mat_Grass_0"
    },
    {
      "mesh": 7,
      "name": "ModularCity_CombinedForFBX_Mat_PlazaTiles_Omnidirectional_0"
    }
  ],
  "samplers": [
    {
      "magFilter": 9729,
      "minFilter": 9987,
      "wrapS": 10497,
      "wrapT": 10497
    },
    {
      "magFilter": 9728,
      "minFilter": 9728,
      "wrapS": 10497,
      "wrapT": 10497
    }
  ],
  "scene": 0,
  "scenes": [
    {
      "name": "Sketchfab_Scene",
      "nodes": [
        0
      ]
    }
  ],
  "textures": [
    {
      "sampler": 0,
      "source": 0
    },
    {
      "sampler": 0,
      "source": 1
    },
    {
      "sampler": 1,
      "source": 2
    },
    {
      "sampler": 0,
      "source": 3
    },
    {
      "sampler": 0,
      "source": 4
    },
    {
      "sampler": 0,
      "source": 5
    }
  ]
}
